<?xml version="1.0" encoding="utf-8"?>
<!-- Generator: Adobe Illustrator 22.1.0, SVG Export Plug-In . SVG Version: 6.00 Build 0)  -->
<svg version="1.1" id="Calque_1" xmlns="http://www.w3.org/2000/svg" xmlns:xlink="http://www.w3.org/1999/xlink" x="0px" y="0px"
	 width="165.6px" height="162.3px" viewBox="0 0 165.6 162.3" style="enable-background:new 0 0 165.6 162.3;" xml:space="preserve"
	>
<style type="text/css">
	.st0{fill:#FFFFFF;}
</style>
<title>logo_blanc</title>
<path class="st0" d="M37.8,34.2c1.8-2,3.8-3.9,5.9-5.6C51.7,22,61,17.4,70.9,15.1c3.8-0.9,7.6-1.4,11.4-1.6
	c18.4-0.8,34.5,4.7,48.2,17c10.3,9.1,17.5,21.3,20.5,34.8c1.3,5.9,1.9,12,1.5,18.1c-0.1,2.7-0.4,5.4-0.9,8c-0.2,0.1-0.4,0-0.5-0.1
	c-1.2-0.6-2.4-1-3.6-1.5c-0.4-0.2-0.5-0.1-0.4,0.3c0.5,3.8,0.7,7.5-0.8,11.2c-0.1,0.3-0.2,0.6-0.4,0.9c-0.1,0.2-0.2,0.4-0.3,0.5
	c-0.4,0.4-0.4,0-0.5-0.2s-0.1-0.5-0.2-0.7c-0.8-3,0-5.4,0.6-8.3c0.1-0.3,0.1-0.5,0.2-0.8c0.2-0.9,0.4-1.8,0.5-2.7
	c3.1-14.8-1.2-29.2-8.3-42.1c-0.2-0.3-0.3-0.6-0.5-0.8s-0.2-0.4-0.4-0.6c-11.1-15.8-29.8-27.5-49.6-27.6c-0.9-0.2-8.5,0.6-9.2,0.7
	c-6,0.8-11.9,2.5-17.4,5c-2.8,1.2-5.4,2.7-8,4.3c-1.8,1.2-3.1,3-5,4c-2.8,1.5-6.6,1.1-9.7,1.5C38.1,34.3,37.9,34.3,37.8,34.2z"/>
<path class="st0" d="M143.9,112.8c-0.7,1.5-1.6,2.9-2.6,4.3c-7,10.4-16.7,18.6-28.2,23.6c-5.5,2.5-11.3,4.1-17.2,5
	c-4.4,0.7-8.8,0.9-13.2,0.6c-12.5-0.6-24.6-4.8-34.9-12c0-0.3,0.2-0.3,0.4-0.4c0.8-0.4,4.5-3,5.4-2.6l0.2,0.1
	c6.1,3.2,11.4,6.3,18.3,7.8c6.5,1.4,13.2,1.8,19.9,1.1c9.1-0.9,17.9-3.8,25.7-8.6c8.2-5.1,13.7-11.8,19.8-19.1
	C138.4,111.8,143.5,113.7,143.9,112.8z"/>
<path class="st0" d="M27.5,110.8c-0.4-0.4-0.8-0.8-1.1-1.3c-3.4-6.8-5.6-14.1-6.4-21.6c-0.5-4.2-0.6-8.4-0.3-12.6
	c0.6-8.5,2.8-16.8,6.6-24.5c0-0.1,0.1-0.1,0.1-0.2c0.3,0,0.3,0.3,0.5,0.4c0.7,1.5,2.1,2.5,3.8,2.7c0.1,0,0.1,0,0.2,0.1
	c0.2,0.2,0.1,0.5,0,0.8c-4.1,10.4-6.4,20.8-5.2,32s5.7,21.1,12.1,30.3c0.3,0.4,1.3,1.6,1.5,1.9c0.6,0.8,4.3,4.7,4.5,5
	s0.2,0.5-0.2,0.6l-0.5,0.1c-0.5,0.1-1.1,0.2-1.6,0.3c-0.1,0-3.5,0.5-3.7,0.6c-0.2,0-0.3,0-0.5,0c-0.7-0.7-1.3-1.4-1.9-2.1
	c-1.8-2.1-3.4-4.2-5-6.5c-0.5-0.6-0.8-1.3-0.9-2c0-0.5-0.1-1.1-0.1-1.6C28.9,112.2,28.3,111.4,27.5,110.8z"/>
<path class="st0" d="M138.6,110.9c-0.5-0.1-0.9-0.4-1.1-0.8c-1.2-2.6-1.7-10.4-1.7-11.1c0.1-1,0.1-1-0.8-1.4
	c-0.3-0.1-0.7-0.2-1.1-0.3c-0.6-0.1-0.7-0.1-0.9,0.6c0,0.1-2.2,9.6-2,14.1c0,0.8-0.1,1-0.5,1.1c-0.2,0.1-0.4,0.1-0.6,0.1
	c-1.8,0.1-3.5-0.1-5.2-0.7c-0.2-0.1-0.3-0.3-0.3-0.4c-0.1-0.4-0.2-0.9-0.3-1.3c-0.1-0.1,0-0.3-0.2-0.3s-0.2,0.2-0.3,0.3l-0.2,0.2
	c-2.5,2.6-5.2,4.6-9,5.2c-2.4,0.4-6,0.5-8.2-0.9l-0.6-0.4c-0.1-0.1-0.2-0.1-0.2-0.2c-1.1-1.2-2-2.6-2.4-4.2
	c-2.7-10-0.5-16.2,1.2-19.7c1-2,2.6-3.6,4.5-4.8c2.3-0.5,4.8-0.3,7,0.5c0.9,0.4,1.7,0.8,2.5,1.4c0.2,0.2,0.4,0.4,0.5,0.6
	c0.7,1.9-1.4,3.3-3,3.6c-1.3,0.2-0.9-0.8-0.9-1.6c0-0.1-0.1-0.2-0.2-0.2c-0.1,0-0.1,0-0.2,0c-0.5,0.4-1,0.8-1.4,1.2
	c-5.1,5.1-5,14-3.3,20.4c0.9,2.2,5.3,0.7,6.8,0.1c3-1.3,5.3-3.9,6.3-7l0.2-0.5c0-5,0.2-10.1,0.4-15.1c0.1-3.1,0.3-6.3,0.4-9.4
	c0.1-1.9,0.4-3.9,0.5-5.8c0-1.1-0.8-3.9,0-4.7c1.1-1.2,5.4,0.7,6.5,1.2c0.9,0.3,1.6,1.1,1.7,2.1c0.1,8.9-1.8,21.8-1.8,22
	c0-0.1,3.6-10.7,6.1-13.7c0.4-0.7,1.2-1.1,2-0.9c1.9,0.3,3.7,0.9,5.2,2c0.6,0.4,0.7,1.1,0.4,1.7c-0.1,0.3-0.7,9.2-1.4,9.6
	c-2.1,1.1-6.3-0.3-6.7-0.5c-0.8-0.5-0.6-1.7-0.5-2.5c-0.5,0.7-0.9,1.5-1.1,2.4c-0.4,1.2-0.5,1.2,0.7,1.4c2,0.3,3.9,0.8,5.8,1.5
	c0.3,0.1,0.6,0.3,0.8,0.5c0.1,0.1,0.2,0.2,0.2,0.4c1.5,11,2.5,10,2.8,9.7c3.9-2.2,4.5-12.5,4.3-13.3c0-0.4,0.1-0.4,0.4-0.3
	c1.2,0.5,2.2,1.4,2.7,2.6c0,0.7-1,7.9-4.5,12.8C146.7,110,144.8,112.1,138.6,110.9z"/>
<path class="st0" d="M44.2,126.2c4.7-0.8,8.8-3.3,11.7-7.1c0-0.1,0.1-0.1,0.1-0.2c1.8-2.5,1.5-5.7,0.4-8.5c-1-2.4-2.9-5.7-5.3-7
	c-0.5-0.2-1.1-0.4-1.6-0.6c-1.4-0.3-2.8-0.6-4.2-0.7c-1-0.2-2-0.3-3-0.3c-1.8,0-3.6-0.1-5.4-0.3c-3.5-0.6-5.3-3.8-5.3-7.2
	c0.1-3.6,1.2-7,3.1-10c1.7-2.7,4.3-6,7.5-7h0.1c1.7-0.5,3.5-0.6,5.2-0.1c3.8,0.9,5.6,5.2,6.5,8.5c0.3,1.3-0.1,1.8-0.5,2.9
	c0,0.1,0.2,0.2,0.3,0.2c0.3,0,0.6,0,0.9,0c2,0,4-0.2,5.9-0.8c1.2-0.2,2.4-0.5,3.6-1c1.2-0.7,1.2-2.1,1.2-3.3c0-0.6,0-1.2,0-1.9
	c-0.2-0.6-0.2-1.2-0.3-1.8c0.4-2.4,7,0.3,8,1.3c0.7,0.7,0,1.6,0.6,2.2c3.4-1,6.5-2.7,9.8-4.2c4.2-1.9,12-4.8,14.7,1.1
	c1.1,2.6,0,5.6-2.5,6.8c-0.1,0-0.3,0.1-0.4,0.1c-0.5,0-0.8-0.4-0.8-0.9c0-0.1,0-0.1,0-0.2c0.2-2.6-5.9-2-7.4-1.8
	c-3.8,0.7-7.2,2.1-10.9,3.2c-0.7,0.2-1.3,0.4-1.9,0.6H74c-0.3,0.2-0.8,0.1-1,0.6c0,0.1,0,0.3-0.1,0.4c-0.1,0.3-0.5,7.1-0.5,7.1
	c0,0.2-0.3,4.8-0.4,5c-0.8,8.2,0,17.5,0.8,18.2c1.5-1.6,2.7-3.4,3.6-5.5c0.1-0.2,0.2-0.5,0.2-0.7c0-0.1,0.2-1,0.3-1.4
	c0-0.2-0.1-4.7-0.1-5.1s0.1-2.3,0.1-2.6c0.2-2.5,0.9-5,2.3-7.2c2.9-4.3,7,0.4,7.1,0.5c0.4,0.6,0.4,1.4-0.1,1.9
	c-0.9,1-1.6,2.1-2.1,3.2c-0.4,1.2-0.7,2.4-0.8,3.7c0,0.1-0.1,2.4-0.1,3c0,1,0.1,2,0.2,3c0.1,1.3,0.4,2.6,0.8,3.9
	c1.1,2.6,3.2,0.6,4.4-1c3.5-4.6,4.3-11.5,2.7-17c-0.2-0.8-0.6-1.7-1-2.4c-0.7-1.3-2-2.3-3.4-2.6c-0.4-0.1-0.9,0-1.2,0.3
	c-0.1,0.2-0.3,0.3-0.5,0.3H85c-1.8,0.2-1.4-2.2-1-3.2c0.9-2.1,2.9-3.4,5.2-3.5c1.8,0.2,3.5,0.8,4.9,1.8c4.7,3.9,4.5,11.6,4.5,11.9
	c-0.5,12.2-4,15.7-6.3,18.5c-4.7,5.7-11.8,1.8-13.7-1.8c-0.2,0.5-0.5,1-0.8,1.4l-0.2,0.3c-0.7,1-1.5,1.9-2.4,2.7
	c-0.1,0.1-0.2,0.2-0.3,0.3c-0.2,0.2-0.4,0.2-0.7,0.2c-0.9,0-1.7-0.1-2.6-0.3c-0.3,0-1.1-0.2-1.2-0.3s-0.4-0.1-0.5-0.1
	c-1.1-0.4-2.1-0.8-3.2-1.4c-1.2-1.1-2-2.7-2.1-4.4c0-0.1-1-16.1,0.2-24.8c0-0.3-0.2-0.3-0.4-0.3c-2.7,0.7-5.4,1.1-8.2,1.3
	c-1.5,0.1-3.6,0.2-4.8-0.8c-0.5-0.9-1.1-0.3-1.7-0.1c-0.1,0-0.2,0.1-0.3,0.1c-0.1,0.1-0.3,0.1-0.4,0.2c-0.5,0.2-1,0.3-1.6,0.2
	c-1.5-0.4-0.1-2.2-0.1-3.2c0-1.9-0.3-10-4.2-8.1c-1.8,0.9-2.4,3.8-2.9,5.5c-0.5,1.8-0.9,3.6-1.2,5.4c-0.1,0.8-0.9,2.9,0.3,2.8
	l3.5-0.1c9.7,0,20,8.4,19.4,18.7c0,1.3-0.1,2.6-0.2,3.8c-0.3,4.1-3.6,8.2-6.7,10.6c-8.7,7-21.4,8.1-32,5.9c-1-0.2-2-0.4-3-0.9
	c-1.5-0.7-2.8-1.7-3.8-2.9c-0.4-1.1-0.5-2.3-0.1-3.4c0.2-1,2.8-9.4,2.9-9.5c0.9-1.4,2.2-2.5,3.8-3.1c1.1-0.4,2.2-0.6,3.3-0.9
	c0.4-0.1,0.8,0.1,1,0.5c0,0,0.1,0.1,0.1,0.1c0.2,0.5,0.1,1-0.4,1.3l-0.7,0.4c-1.2,0.8-2.6,1.5-3.3,2.8c-1.4,2.6,0.4,6.2,3.1,7.3
	c0,0,1.1,0.8,4.9,1.6C34.4,127.6,43.8,126.3,44.2,126.2z"/>
<path class="st0" d="M31.2,52c-2.1-0.4-3.1-2-3.9-3.9s-1.5-4.4-0.7-6.4c0.1-0.2,0.2-0.4,0.3-0.5c0.4-0.5,0.9-1,1.5-1.4
	c4.6-3.6,15-4.1,15.6-4.1c3.8-0.1,7.7-0.2,11.5-0.3c3.3-0.1,7,0.1,10.1-1.4c0.8-0.3,1.4-1,1.5-1.8c0-0.2,0.1-0.4,0.2-0.5
	c0-0.1,0.1-0.1,0.1-0.2c0.4-0.5,0.7-0.5,1.2-0.1c0.3,0.2,0.6,0.5,0.9,0.8c0.7,0.9,1.1,2,1,3.1c-0.2,0.8-0.6,1.4-1.3,1.9
	c-0.8,0.6-1.7,1-2.7,1.3c-2.2,0.5-4.4,0.9-6.6,0.9c-3,0.3-6,0.5-9,0.5c-0.1,0-2.2,0.2-2.3,0.2l0,0c-0.3,0-0.6,0.2-0.6,0.5
	c0,0.1,0,0.2,0.1,0.3c0.3,0.7,0.4,1.4,0.3,2.2c0,0.9-0.3,3.9-0.4,4.5c-0.2,0.8-0.3,4-0.4,4.7c-0.1,1-0.2,1.9-0.2,2.9
	c0,0.1,0,0.2,0,0.4s0,0.4,0,0.6s0,1,0,1.1c-0.2,2.3-0.2,4.7,0,7c0.1,1.2,0.3,2.4,0.6,3.6c0.2,0.7,1,2.2,0.6,2.8
	c-1,1.5-4.7-0.1-5.6-0.9c-0.2-0.2-0.3-0.9-0.3-1.2c-0.2-1.2-0.3-2.4-0.4-3.5c-0.4-4.4-0.4-8.8,0-13.1v-0.1c0-0.2,0.2-1.7,0.2-2.3
	l0,0c0.1-0.8,0.2-2.6,0.3-2.7c0.1-0.6,0.3-4.3,0.3-5.3c0-0.3-0.3-0.6-0.6-0.6c0,0,0,0-0.1,0c-2.5,0.3-5,1-7.3,2.1
	c-1.9,1-6.2,4.4-3.1,6.6c0.8,0.4,1.7,0.7,2.6,0.8c0.1,0,0.2,0.1,0.3,0.2C34.8,52.5,32.5,52.2,31.2,52L31.2,52z"/>
<path class="st0" d="M99.3,71.6c0,1.3,0.3,2.6,0.7,3.9c0.3,0.9,1,1.7,1.8,2.1c0.4,0.3,0.9,0.4,1.4,0.4c1.9-0.1,3.7-0.7,5.3-1.8
	l0.1-0.1c0.1-0.1,0.3-0.1,0.4,0.1c0.8,0.6,1.9,0.8,2.9,0.6c0.1-0.1,0.2-0.2,0.3-0.3c0-0.1,0-0.2,0-0.3c0-0.6,0.1-1.1,0.1-1.7
	c0-0.3,0-0.7,0.1-1c0-0.4,0.1-0.7,0.2-1.1v-0.2c0-0.3,0.1-0.7,0.2-1v-0.2c0-0.2,0.1-0.4,0.1-0.6c0.1-0.3,0.2-0.7,0.3-1l0,0
	c0.1-0.1,0.2-0.2,0.3-0.2c0.1,0,0.2,0.1,0.2,0.2c0,0.2,0.1,1.2,0.1,1.7c0,0.2,0,0.4,0,0.6l0,0c0.1,0.6,0.3,1.2,0.5,1.7
	c0.4,0.7,1,1.2,1.8,1.5c0.2,0.1,0.4,0.1,0.7,0.1c1.6-0.1,3.1-1.1,3.7-2.6c0.3-0.7,0.5-1.4,0.5-2.2c0-0.7-0.1-1.9-0.7-2.3
	s-0.8-0.3-0.9,0.5c0,0.1,0,0.2,0,0.2c0,0.6,0,1.2-0.1,1.8c-0.1,0.6-0.3,1.2-0.5,1.8c-0.2,0.4-0.5,0.8-0.8,1.1
	c-0.1,0.1-0.3,0.1-0.4,0c0,0,0,0,0,0c-0.1-0.2-0.1-0.4-0.1-0.6c-0.1-0.8-0.2-1.5-0.1-2.3c0-0.2,0-1.7,0-1.8c0-0.4,0.1-2.6,0.2-2.8
	c0.1-0.5,0.1-1,0.2-1.5c0.2-0.7-0.2-1-0.7-1.3l-0.4-0.2c-0.2-0.1-0.5-0.1-0.7-0.2l-0.2-0.1c-0.5-0.1-1.1-0.2-1.5,0.4l-0.4,0.6
	l-0.1,0.2c-0.4,0.7-0.8,1.4-1.2,2.2l0,0c-0.3,0.6-0.5,1.3-0.7,1.9c0,0.1,0,0.2,0,0.2c0-0.3,0-0.5,0.1-0.7c0,0,0,0,0-0.1
	c0-0.5,0.1-1.1,0.1-1.6l0,0c0-0.3,0-0.6-0.2-0.8c-0.2-0.2-0.4-0.3-0.7-0.4l0,0c-0.4-0.2-0.8-0.3-1.2-0.4c-0.2,0-0.3,0-0.5-0.1l0,0
	c-0.4-0.1-0.7-0.1-1.1,0c-0.1,0.1-0.2,0.2-0.2,0.3c0,0.4,0.1,0.8,0.1,1.2s-0.1,1.8-0.1,2s0,0.5,0,0.6c0,0.8,0,1.6,0,2.4
	c0,0.3,0,0.7,0,1s0,0.5,0,0.8v0.3c-0.1,0.9-0.4,1.8-0.9,2.5c-0.3,0.4-0.7,0.8-1.2,1c-0.4,0.2-0.8,0.3-1.2,0.4
	c-0.4,0.2-0.8,0.2-1.3,0.2c-0.1,0-0.2-0.1-0.3-0.2c-0.4-0.6-0.7-1.3-0.7-2.1c0-0.1,0.1-0.2,0.2-0.2l0.9-0.7c0.2-0.2,0.4-0.3,0.6-0.5
	l0.1-0.1l0.2-0.2l0.3-0.2c0.2-0.2,0.3-0.3,0.5-0.5c0.5-0.5,1-1.1,1.4-1.7l0,0c0.2-0.3,0.3-0.6,0.5-0.9c0.5-1,0.4-2.1-0.3-3
	c-0.1-0.1-0.1-0.1-0.2-0.2l-0.3-0.3l-0.2-0.1c-0.7-0.5-1.6-0.7-2.5-0.8c-0.3,0-0.6,0-0.9,0c-0.6,0.2-1.1,0.5-1.5,1
	c-0.7,0.7-1.2,1.5-1.5,2.4c-0.1,0.2-0.1,0.4-0.2,0.4C99.5,69.7,99.3,70.6,99.3,71.6 M103,72.1c-0.4-4.1,2.4-5.5,2.7-5.3
	c0.4,0.2,0.5,0.7,0.4,1.1c-0.4,0.8-0.9,1.6-1.4,2.4C104.1,70.9,103.6,71.5,103,72.1"/>
<path class="st0" d="M50,49.1c0-0.1,0-0.3-0.1-0.4c-0.5-0.6-0.3-0.9,0.5-1.2c0.3,0,0.7,0,1,0.1c0.1,0,0.2,0,0.3,0.1
	c1,0.3,1.9,0.6,2.8,1c0.3,0.1,0.5,0.3,0.7,0.6c0,0.1,0.1,0.2,0.1,0.3c0,0.3,0,0.7,0,1s-0.2,1.9-0.2,2c-0.1,0.7-0.2,1.3-0.2,1.8
	c0.1-0.5,0.3-1,0.5-1.5c0.5-1.3,1-2.5,1.7-3.8c0.4-0.9,0.9-1.8,1.5-2.7c0.1-0.2,0.2-0.3,0.4-0.5c0.2-0.2,0.4-0.3,0.7-0.3
	c0.2,0,3.4,1,4,1.2c0.1,0.1,0.2,0.2,0.2,0.3c0.1,0.2,0.1,0.4,0.1,0.6c0,0.1,0,0.2,0,0.4c-0.1,0.3-0.3,1.7-0.3,1.9s-0.1,1.4-0.2,1.6
	c-0.1,0.5-0.2,3.1-0.4,3.4c-0.5,0.4-3.7-0.2-4-0.3c-0.7-0.1-1.1-0.8-1-1.5c0,0,0-0.1,0-0.1c0-0.1,0.1-0.2,0-0.3
	c-0.3,0.5-0.5,1-0.7,1.5l-0.1,0.2c0,0.1-0.1,0.3-0.1,0.4c-0.1,0.2-0.1,0.4-0.2,0.6c-0.2,0.7-0.4,1.5-0.6,2.2
	c-0.1,0.2-0.4,1.7-0.4,1.8s-0.5,3.2-0.5,3.4s-0.3,3-0.4,3.5c-0.3,1.2-3.3,0.9-4.2,0.1c0,0-0.1-0.1-0.1-0.2c-0.1-0.3-0.2-0.6-0.2-0.9
	c-0.1-0.4-0.3-3.5-0.5-4.7l0,0c0-0.2-0.2-4.6-0.2-5.7c0-0.1,0-0.3,0-0.4c0-0.3,0-0.6,0-0.8C49.7,52.4,49.8,50.8,50,49.1z"/>
<path class="st0" d="M64.9,53.9c0.2-1.4,0.5-2.8,1-4.1c0.7-1.9,2.7-3,4.5-1.5c0.2,0.2,0.5,0.3,0.7,0.6c0.1,0.1,0.2,0.3,0.3,0.4
	c0.3,0.9-0.9,1.8-1.3,2.5c-0.6,1.3-0.9,2.8-0.9,4.3c0,1.2-0.3,6.2,1.5,6.2c1.2,0,2.2-2.2,2.5-3.1c0.8-2.1,1.3-4.3,1.4-6.6
	c0.1-1.1-0.1-2.2-0.5-3.3c-0.1-0.5-0.4-1-0.7-1.5c-0.4-0.7-1.1-1.2-1.9-1.3c-0.3,0-0.5,0-0.8,0.2c-0.3,0.2-0.6,0.4-1,0.1
	c-0.4-0.3-0.6-0.7-0.5-1.2c0-0.1,0-0.2,0-0.3c0.1-0.5,0.4-2.8,2.8-3.1c0.5,0,1,0,1.5,0.2c1.9,0.7,3.5,2,4.6,3.7
	c0.1,0.1,0.1,0.3,0.2,0.4c0,0,0,0.1,0,0.1c0.2,0.4,0.3,0.8,0.4,1.1c1.1,3.3,0.5,7-0.7,10.2c-1.1,3-2.8,5.8-6.1,6.7
	c-1.3,0.4-2.6,0.3-3.8-0.3L68,64.1c-1-0.6-1.8-1.5-2.3-2.6c0-0.1-0.4-1.1-0.5-1.3C64.7,58.1,64.5,56,64.9,53.9z"/>
<path class="st0" d="M83.7,59.8c-0.8-0.6-1.5-1.4-1.9-2.3c-0.8-1.9-1.2-4-0.9-6c0.2-3.7,1.5-7.5,4.5-9.7c0.6-0.5,1.3-0.8,2-1
	c1.2-0.1,2.5,0.2,3.6,0.8c0.5,0.2,0.9,0.4,1.2,0.8c0.4,0.4,0.5,0.9,0.3,1.4c-0.1,0.3-0.4,0.5-0.6,0.7c-0.4,0.4-0.9,0.7-1.4,0.7
	c-0.5,0-1-0.7-0.7-1.1c-0.3,0.4-0.8,0.6-1.2,1c-2.8,3.3-3.2,9.2-1.9,13.1c0.2,0.6,0.8,0.6,1.4,0.5c3.8-0.4,7.4-3.5,7.4-7.6
	c0-0.3,0-0.7,0-1c0-0.4,0-0.8,0.1-1.2c0.2-0.3,0.4-0.1,0.7,0l0,0c0.1,0,1.3,1.1,1.4,1.2c0.1,0.1,0.1,0.2,0.2,0.4c0,0.2,0,0.3,0,0.5
	s0,0.4,0,0.6c-0.2,1.8-0.8,3.5-1.7,5c-1.8,2.8-5,4.5-8.4,4.4C86.2,61,84.8,60.6,83.7,59.8z"/>
</svg>
